<?xml version="1.0" encoding="UTF-8"?>
<svg id="Layer_1" data-name="Layer 1" xmlns="http://www.w3.org/2000/svg" viewBox="0 0 247.56 234.5">
  <defs>
    <style>
      .cls-1, .cls-2, .cls-3 {
        stroke-width: 0px;
      }

      .cls-1, .cls-3 {
        fill: #151515;
      }

      .cls-2 {
        fill: none;
      }

      .cls-3 {
        fill-rule: evenodd;
      }
    </style>
  </defs>
  <rect class="cls-2" x="60.74" width="113.33" height="188"/>
  <path class="cls-3" d="M72.47,70.82c8.28,1.11,16.42,3.64,24,7.14.84,5.6,2.53,10.91,4.78,16.09,1.54,3.5,3.51,6.85,5.47,9.93-6.88.15-14.18.57-20.92,2.24-9.69-9.23-14.46-22.11-13.33-35.41ZM161.89,23.94c0-6.72-5.33-12.04-12.07-12.04s-12.07,5.31-12.07,12.04,5.47,12.04,12.07,12.04,12.07-5.32,12.07-12.04ZM157.26,23.94c0-4.06-3.37-7.42-7.44-7.42s-7.44,3.36-7.44,7.42,3.37,7.41,7.44,7.41,7.44-3.35,7.44-7.41ZM154.87,70.13c.7-23.8-57.14-30.65-48.15-70.13-.56,33.87,57.84,41.71,48.15,70.13ZM95.77,72.92c-8.43-3.92-17.55-6.16-26.81-6.57-2.67,14.97,1.68,29.81,12.49,40.59-5.05.83-9.55,1.95-14.04,4.33,12.78,27.15,43.94,40.45,72.44,30.65-26.25,6.3-53.48-5.46-66.68-28.97,11.79-3.21,24.15-4.89,36.36-5.04,8.98,11.76,21.76,20.44,36.36,24.49-6.73-34.01,1.41-40.45,23.31-61.02,13.9-15.4,14.6-28.13,1.96-37.93,17.69,33.45-50.4,46.46-30.74,91.25-31.17-14.55-45.77-48.84-34.54-81.31,9.27,3.08,17.13,9.38,22.04,17.92-3.79-12.17-13.2-21.83-25.13-25.89-6.04,11.76-8.28,24.77-7.02,37.51ZM170.46,76.14c19.65,57.24-76.38,86.36-29.91,111.96-27.23-25.89,64.16-69.56,29.91-111.96Z"/>
  <g>
    <path class="cls-1" d="M15.04,218.27c3.98-1.56,5.75-3.71,5.75-6.96,0-4.15-3.33-6.98-9.17-6.98-1.56,0-3.67.04-6.25.04H0v1.56c2.46.63,3.17,1.9,3.17,4.23v17.96c0,2.33-.71,3.65-3.17,4.27v1.44h5.38c2.1,0,4.44.08,6.46.08,6.98,0,11-3.58,11-8.42,0-3.96-2.54-6.38-7.79-7.23ZM6.98,206.64c1.31-.21,2.63-.25,3.54-.25,3.98,0,6.27,2.25,6.27,5.67,0,4.65-2.54,5.5-7.15,5.5-.9,0-1.79,0-2.67-.04v-10.88ZM11.63,231.85c-1.44,0-3-.13-4.65-.6v-11.67c.98-.04,2.02-.08,3.25-.08,5.67,0,8.5,1.85,8.5,6.08,0,3.9-2.54,6.27-7.1,6.27Z"/>
    <path class="cls-1" d="M45.74,233.83l2.4-6.65-1.48-.5c-1.85,3.52-4.1,4.85-8.19,4.85-2.13,0-3.85-.08-5.25-.25v-19.85c0-3.19.25-4.79,3.33-5.63v-1.44h-10.56v1.44c3.08.83,3.42,2.44,3.42,5.63v16.85c0,2.54-.71,3.48-3.17,4.1v1.44h19.5Z"/>
    <path class="cls-1" d="M64.85,234.5c8.27,0,15.04-6.79,15.04-15.5s-6.08-15.31-15-15.31c-8.25,0-15.02,6.77-15.02,15.35s6.23,15.46,14.98,15.46ZM65.31,232.19c-5.92,0-10.88-5.46-10.88-14.04,0-7.65,4.19-12.13,9.98-12.13,6.08,0,10.92,5.46,10.92,13.69s-4.27,12.48-10.02,12.48Z"/>
    <path class="cls-1" d="M98.74,234.5c8.27,0,15.04-6.79,15.04-15.5s-6.08-15.31-15-15.31c-8.25,0-15.02,6.77-15.02,15.35s6.23,15.46,14.98,15.46ZM99.2,232.19c-5.92,0-10.88-5.46-10.88-14.04,0-7.65,4.19-12.13,9.98-12.13,6.08,0,10.92,5.46,10.92,13.69s-4.27,12.48-10.02,12.48Z"/>
    <path class="cls-1" d="M150.27,209.69c-.13-2.52.88-3.42,3.17-3.88v-1.44h-7.48c0,1.52-1.19,4.23-1.65,5.27l-8.33,17.98-8.71-18.6c-1.1-2.33-1.27-3.73-1.27-4.65h-7.31v1.44c2.06.54,2.96,1.35,2.88,3.33l-.38,7.48-.9,11.54c-.21,2.79-.54,3.56-3.71,4.23v1.44l9.63-.04v-1.4c-3.38-.67-3.5-1.77-3.38-4.23l.88-17.83,8.75,18.94c.69,1.44,1.23,2.75,1.54,4.1h2.06c.67-2.63,1.44-4.02,1.69-4.56l8.88-19.5.81,17.79c.17,3.69-.4,4.4-3.6,5.25v1.48h10.75v-1.44c-3.04-.85-3.13-1.19-3.35-5.21l-.96-17.5Z"/>
    <path class="cls-1" d="M172.33,234.5c8.27,0,15.04-6.79,15.04-15.5s-6.08-15.31-15-15.31c-8.25,0-15.02,6.77-15.02,15.35s6.23,15.46,14.98,15.46ZM172.79,232.19c-5.92,0-10.88-5.46-10.88-14.04,0-7.65,4.19-12.13,9.98-12.13,6.08,0,10.92,5.46,10.92,13.69s-4.27,12.48-10.02,12.48Z"/>
    <path class="cls-1" d="M206.81,220.44c3.42-1.31,5.33-4.15,5.33-8.08,0-4.73-3.73-8.15-9.1-8.15-1.52,0-3.92.17-6.67.17h-5.33v1.44c2.46.83,3.17,1.69,3.17,4.02v16.94c0,3.17-.25,4.77-3.33,5.63v1.44h10.56v-1.44c-3.08-.85-3.42-2.46-3.42-5.63v-5.71c1.69.17,2.92.25,3.63.25.4,0,.77,0,1.15-.04l5.88,9.4c1.73,2.75,3.08,3.54,5.96,3.54.9,0,1.83-.13,2.83-.21v-1.19c-2.96,0-4.6-2.44-7.4-7.06l-3.25-5.31ZM200.98,219.29c-1.19,0-2.15-.13-2.96-.25v-12.4c1.15-.21,2.38-.29,3.5-.29,4.06,0,6.52,2.63,6.52,6.56,0,4.4-2.71,6.38-7.06,6.38Z"/>
    <path class="cls-1" d="M235.04,204.37h-3.54l-9.65,24.4c-1.02,2.52-2.46,3.25-4.4,3.63v1.44h9.9v-1.44c-2.75-.63-3.25-1.9-2.33-4.44l2.42-6.5,9.52.04,2.15,6.38c.98,2.88-.21,3.9-2.21,4.52v1.44h10.67v-1.44c-2.25-.71-3.17-1.48-4.19-4.35l-8.33-23.67ZM232.41,208.08l3.81,11.21h-7.98l4.17-11.21Z"/>
  </g>
</svg>