<svg xmlns="http://www.w3.org/2000/svg" xmlns:xlink="http://www.w3.org/1999/xlink" width="500" zoomAndPan="magnify" viewBox="0 0 375 374.999991" height="500" preserveAspectRatio="xMidYMid meet" version="1.0"><defs><clipPath id="b783d22c29"><path d="M 136 116.953125 L 221 116.953125 L 221 257.953125 L 136 257.953125 Z M 136 116.953125 " clip-rule="nonzero"/></clipPath></defs><g clip-path="url(#b783d22c29)"><path fill="#677ea4" d="M 140.230469 170.070312 C 146.441406 170.910156 152.546875 172.796875 158.230469 175.421875 C 158.863281 179.625 160.128906 183.609375 161.8125 187.492188 C 162.96875 190.117188 164.445312 192.636719 165.917969 194.945312 C 160.761719 195.050781 155.285156 195.367188 150.230469 196.628906 C 142.964844 189.699219 139.386719 180.042969 140.230469 170.070312 Z M 207.296875 134.90625 C 207.296875 129.867188 203.296875 125.878906 198.242188 125.878906 C 193.292969 125.878906 189.1875 129.867188 189.1875 134.90625 C 189.1875 139.941406 193.292969 143.933594 198.242188 143.933594 C 203.296875 143.933594 207.296875 139.941406 207.296875 134.90625 Z M 203.824219 134.90625 C 203.824219 131.863281 201.296875 129.34375 198.242188 129.34375 C 195.1875 129.34375 192.660156 131.863281 192.660156 134.90625 C 192.660156 137.949219 195.1875 140.46875 198.242188 140.46875 C 201.296875 140.46875 203.824219 137.949219 203.824219 134.90625 Z M 202.03125 169.546875 C 202.558594 151.703125 159.179688 146.558594 165.917969 116.953125 C 165.5 142.359375 209.296875 148.234375 202.03125 169.546875 Z M 157.707031 171.644531 C 151.386719 168.707031 144.542969 167.027344 137.597656 166.714844 C 135.59375 177.941406 138.859375 189.066406 146.964844 197.152344 C 143.175781 197.777344 139.804688 198.621094 136.4375 200.402344 C 146.019531 220.765625 169.394531 230.742188 190.765625 223.390625 C 171.078125 228.117188 150.652344 219.296875 140.753906 201.664062 C 149.597656 199.253906 158.863281 197.992188 168.023438 197.886719 C 174.761719 206.703125 184.34375 213.214844 195.292969 216.257812 C 190.242188 190.75 196.347656 185.917969 212.773438 170.488281 C 223.195312 158.945312 223.722656 149.394531 214.246094 142.042969 C 227.511719 167.128906 176.445312 176.890625 191.1875 210.480469 C 167.8125 199.570312 156.863281 173.847656 165.285156 149.492188 C 172.234375 151.804688 178.132812 156.527344 181.816406 162.929688 C 178.972656 153.800781 171.917969 146.558594 162.96875 143.511719 C 158.441406 152.332031 156.757812 162.09375 157.707031 171.644531 Z M 213.722656 174.058594 C 228.457031 216.988281 156.441406 238.828125 191.292969 258.03125 C 170.867188 238.609375 239.410156 205.863281 213.722656 174.058594 Z M 213.722656 174.058594 " fill-opacity="1" fill-rule="evenodd"/></g></svg>