<svg xmlns="http://www.w3.org/2000/svg" xmlns:xlink="http://www.w3.org/1999/xlink" width="500" zoomAndPan="magnify" viewBox="0 0 375 374.999991" height="500" preserveAspectRatio="xMidYMid meet" version="1.0"><defs><g/><clipPath id="b63fdab2ea"><path d="M 136 89.441406 L 221 89.441406 L 221 230.441406 L 136 230.441406 Z M 136 89.441406 " clip-rule="nonzero"/></clipPath></defs><g clip-path="url(#b63fdab2ea)"><path fill="#677ea4" d="M 140.230469 142.558594 C 146.441406 143.394531 152.546875 145.285156 158.230469 147.910156 C 158.863281 152.109375 160.128906 156.09375 161.8125 159.980469 C 162.96875 162.605469 164.445312 165.121094 165.917969 167.429688 C 160.761719 167.539062 155.285156 167.855469 150.230469 169.113281 C 142.964844 162.1875 139.386719 152.527344 140.230469 142.558594 Z M 207.296875 107.394531 C 207.296875 102.351562 203.296875 98.367188 198.242188 98.367188 C 193.292969 98.367188 189.1875 102.351562 189.1875 107.394531 C 189.1875 112.429688 193.292969 116.421875 198.242188 116.421875 C 203.296875 116.421875 207.296875 112.429688 207.296875 107.394531 Z M 203.824219 107.394531 C 203.824219 104.351562 201.296875 101.832031 198.242188 101.832031 C 195.1875 101.832031 192.660156 104.351562 192.660156 107.394531 C 192.660156 110.4375 195.1875 112.953125 198.242188 112.953125 C 201.296875 112.953125 203.824219 110.4375 203.824219 107.394531 Z M 202.03125 142.035156 C 202.558594 124.1875 159.179688 119.046875 165.917969 89.441406 C 165.5 114.84375 209.296875 120.722656 202.03125 142.035156 Z M 157.707031 144.128906 C 151.386719 141.191406 144.542969 139.511719 137.597656 139.199219 C 135.59375 150.425781 138.859375 161.554688 146.964844 169.640625 C 143.175781 170.265625 139.804688 171.105469 136.4375 172.890625 C 146.019531 193.253906 169.394531 203.226562 190.765625 195.878906 C 171.078125 200.601562 150.652344 191.785156 140.753906 174.148438 C 149.597656 171.738281 158.863281 170.480469 168.023438 170.371094 C 174.761719 179.191406 184.34375 185.699219 195.292969 188.742188 C 190.242188 163.238281 196.347656 158.402344 212.773438 142.976562 C 223.195312 131.429688 223.722656 121.878906 214.246094 114.527344 C 227.511719 139.617188 176.445312 149.375 191.1875 182.964844 C 167.8125 172.054688 156.863281 146.335938 165.285156 121.980469 C 172.234375 124.292969 178.132812 129.015625 181.816406 135.417969 C 178.972656 126.289062 171.917969 119.046875 162.96875 116 C 158.441406 124.816406 156.757812 134.578125 157.707031 144.128906 Z M 213.722656 146.542969 C 228.457031 189.476562 156.441406 211.3125 191.292969 230.515625 C 170.867188 211.097656 239.410156 178.347656 213.722656 146.542969 Z M 213.722656 146.542969 " fill-opacity="1" fill-rule="evenodd"/></g><g fill="#677ea4" fill-opacity="1"><g transform="translate(93.836494, 264.81473)"><g><path d="M 12.453125 -11.671875 C 15.4375 -12.84375 16.765625 -14.453125 16.765625 -16.890625 C 16.765625 -20 14.265625 -22.125 9.890625 -22.125 C 8.71875 -22.125 7.140625 -22.09375 5.203125 -22.09375 L 1.171875 -22.09375 L 1.171875 -20.921875 C 3.015625 -20.453125 3.546875 -19.5 3.546875 -17.75 L 3.546875 -4.28125 C 3.546875 -2.53125 3.015625 -1.546875 1.171875 -1.078125 L 1.171875 0 L 5.203125 0 C 6.78125 0 8.53125 0.0625 10.046875 0.0625 C 15.28125 0.0625 18.296875 -2.625 18.296875 -6.25 C 18.296875 -9.21875 16.390625 -11.03125 12.453125 -11.671875 Z M 6.40625 -20.390625 C 7.390625 -20.546875 8.375 -20.578125 9.0625 -20.578125 C 12.046875 -20.578125 13.765625 -18.890625 13.765625 -16.328125 C 13.765625 -12.84375 11.859375 -12.203125 8.40625 -12.203125 C 7.734375 -12.203125 7.0625 -12.203125 6.40625 -12.234375 Z M 9.890625 -1.484375 C 8.8125 -1.484375 7.640625 -1.578125 6.40625 -1.9375 L 6.40625 -10.6875 C 7.140625 -10.71875 7.921875 -10.75 8.84375 -10.75 C 13.09375 -10.75 15.21875 -9.359375 15.21875 -6.1875 C 15.21875 -3.265625 13.3125 -1.484375 9.890625 -1.484375 Z M 9.890625 -1.484375 "/></g></g></g><g fill="#677ea4" fill-opacity="1"><g transform="translate(113.331526, 264.81473)"><g><path d="M 15.984375 0 L 17.78125 -4.984375 L 16.671875 -5.359375 C 15.28125 -2.71875 13.59375 -1.71875 10.53125 -1.71875 C 8.9375 -1.71875 7.640625 -1.78125 6.59375 -1.90625 L 6.59375 -16.796875 C 6.59375 -19.1875 6.78125 -20.390625 9.09375 -21.015625 L 9.09375 -22.09375 L 1.171875 -22.09375 L 1.171875 -21.015625 C 3.484375 -20.390625 3.734375 -19.1875 3.734375 -16.796875 L 3.734375 -4.15625 C 3.734375 -2.25 3.203125 -1.546875 1.359375 -1.078125 L 1.359375 0 Z M 15.984375 0 "/></g></g></g><g fill="#677ea4" fill-opacity="1"><g transform="translate(130.956307, 264.81473)"><g><path d="M 12.6875 0.5 C 18.890625 0.5 23.96875 -4.59375 23.96875 -11.125 C 23.96875 -17.59375 19.40625 -22.609375 12.71875 -22.609375 C 6.53125 -22.609375 1.453125 -17.53125 1.453125 -11.09375 C 1.453125 -4.71875 6.125 0.5 12.6875 0.5 Z M 13.03125 -1.234375 C 8.59375 -1.234375 4.875 -5.328125 4.875 -11.765625 C 4.875 -17.5 8.015625 -20.859375 12.359375 -20.859375 C 16.921875 -20.859375 20.546875 -16.765625 20.546875 -10.59375 C 20.546875 -4.65625 17.34375 -1.234375 13.03125 -1.234375 Z M 13.03125 -1.234375 "/></g></g></g><g fill="#677ea4" fill-opacity="1"><g transform="translate(156.379092, 264.81473)"><g><path d="M 12.6875 0.5 C 18.890625 0.5 23.96875 -4.59375 23.96875 -11.125 C 23.96875 -17.59375 19.40625 -22.609375 12.71875 -22.609375 C 6.53125 -22.609375 1.453125 -17.53125 1.453125 -11.09375 C 1.453125 -4.71875 6.125 0.5 12.6875 0.5 Z M 13.03125 -1.234375 C 8.59375 -1.234375 4.875 -5.328125 4.875 -11.765625 C 4.875 -17.5 8.015625 -20.859375 12.359375 -20.859375 C 16.921875 -20.859375 20.546875 -16.765625 20.546875 -10.59375 C 20.546875 -4.65625 17.34375 -1.234375 13.03125 -1.234375 Z M 13.03125 -1.234375 "/></g></g></g><g fill="#677ea4" fill-opacity="1"><g transform="translate(181.801877, 264.81473)"><g><path d="M 25.90625 -18.109375 C 25.8125 -20 26.5625 -20.671875 28.28125 -21.015625 L 28.28125 -22.09375 L 22.671875 -22.09375 C 22.671875 -20.953125 21.78125 -18.921875 21.4375 -18.140625 L 15.1875 -4.65625 L 8.65625 -18.609375 C 7.828125 -20.359375 7.703125 -21.40625 7.703125 -22.09375 L 2.21875 -22.09375 L 2.21875 -21.015625 C 3.765625 -20.609375 4.4375 -20 4.375 -18.515625 L 4.09375 -12.90625 L 3.421875 -4.25 C 3.265625 -2.15625 3.015625 -1.578125 0.640625 -1.078125 L 0.640625 0 L 7.859375 -0.03125 L 7.859375 -1.078125 C 5.328125 -1.578125 5.234375 -2.40625 5.328125 -4.25 L 5.984375 -17.625 L 12.546875 -3.421875 C 13.0625 -2.34375 13.46875 -1.359375 13.703125 -0.34375 L 15.25 -0.34375 C 15.75 -2.3125 16.328125 -3.359375 16.515625 -3.765625 L 23.171875 -18.390625 L 23.78125 -5.046875 C 23.90625 -2.28125 23.484375 -1.75 21.078125 -1.109375 L 21.078125 0 L 29.140625 0 L 29.140625 -1.078125 C 26.859375 -1.71875 26.796875 -1.96875 26.625 -4.984375 Z M 25.90625 -18.109375 "/></g></g></g><g fill="#677ea4" fill-opacity="1"><g transform="translate(211.567466, 264.81473)"><g><path d="M 12.6875 0.5 C 18.890625 0.5 23.96875 -4.59375 23.96875 -11.125 C 23.96875 -17.59375 19.40625 -22.609375 12.71875 -22.609375 C 6.53125 -22.609375 1.453125 -17.53125 1.453125 -11.09375 C 1.453125 -4.71875 6.125 0.5 12.6875 0.5 Z M 13.03125 -1.234375 C 8.59375 -1.234375 4.875 -5.328125 4.875 -11.765625 C 4.875 -17.5 8.015625 -20.859375 12.359375 -20.859375 C 16.921875 -20.859375 20.546875 -16.765625 20.546875 -10.59375 C 20.546875 -4.65625 17.34375 -1.234375 13.03125 -1.234375 Z M 13.03125 -1.234375 "/></g></g></g><g fill="#677ea4" fill-opacity="1"><g transform="translate(236.990251, 264.81473)"><g><path d="M 13.125 -10.046875 C 15.6875 -11.03125 17.125 -13.15625 17.125 -16.109375 C 17.125 -19.65625 14.328125 -22.21875 10.296875 -22.21875 C 9.15625 -22.21875 7.359375 -22.09375 5.296875 -22.09375 L 1.296875 -22.09375 L 1.296875 -21.015625 C 3.140625 -20.390625 3.671875 -19.75 3.671875 -18 L 3.671875 -5.296875 C 3.671875 -2.921875 3.484375 -1.71875 1.171875 -1.078125 L 1.171875 0 L 9.09375 0 L 9.09375 -1.078125 C 6.78125 -1.71875 6.53125 -2.921875 6.53125 -5.296875 L 6.53125 -9.578125 C 7.796875 -9.453125 8.71875 -9.390625 9.25 -9.390625 C 9.546875 -9.390625 9.828125 -9.390625 10.109375 -9.421875 L 14.515625 -2.375 C 15.8125 -0.3125 16.828125 0.28125 18.984375 0.28125 C 19.65625 0.28125 20.359375 0.1875 21.109375 0.125 L 21.109375 -0.765625 C 18.890625 -0.765625 17.65625 -2.59375 15.5625 -6.0625 Z M 8.75 -10.90625 C 7.859375 -10.90625 7.140625 -11 6.53125 -11.09375 L 6.53125 -20.390625 C 7.390625 -20.546875 8.3125 -20.609375 9.15625 -20.609375 C 12.203125 -20.609375 14.046875 -18.640625 14.046875 -15.6875 C 14.046875 -12.390625 12.015625 -10.90625 8.75 -10.90625 Z M 8.75 -10.90625 "/></g></g></g><g fill="#677ea4" fill-opacity="1"><g transform="translate(257.943444, 264.81473)"><g><path d="M 13.34375 -22.09375 L 10.6875 -22.09375 L 3.453125 -3.796875 C 2.6875 -1.90625 1.609375 -1.359375 0.15625 -1.078125 L 0.15625 0 L 7.578125 0 L 7.578125 -1.078125 C 5.515625 -1.546875 5.140625 -2.5 5.828125 -4.40625 L 7.640625 -9.28125 L 14.78125 -9.25 L 16.390625 -4.46875 C 17.125 -2.3125 16.234375 -1.546875 14.734375 -1.078125 L 14.734375 0 L 22.734375 0 L 22.734375 -1.078125 C 21.046875 -1.609375 20.359375 -2.1875 19.59375 -4.34375 Z M 11.375 -19.3125 L 14.234375 -10.90625 L 8.25 -10.90625 Z M 11.375 -19.3125 "/></g></g></g><g fill="#677ea4" fill-opacity="1"><g transform="translate(140.812057, 283.559014)"><g><path d="M 5.609375 -5.9375 L 2.09375 -5.9375 L 2.09375 -3.921875 L 5.28125 -3.921875 L 5.28125 -2.875 L 2.09375 -2.875 L 2.09375 0 L 0.921875 0 L 0.921875 -7 L 5.625 -7 Z M 5.609375 -5.9375 "/></g></g></g><g fill="#677ea4" fill-opacity="1"><g transform="translate(148.40979, 283.559014)"><g><path d="M 2.09375 -1.0625 L 5.125 -1.0625 L 5.125 0 L 0.921875 0 L 0.921875 -7 L 2.09375 -7 Z M 2.09375 -1.0625 "/></g></g></g><g fill="#677ea4" fill-opacity="1"><g transform="translate(155.597675, 283.559014)"><g><path d="M 1.40625 -6.015625 C 2.125 -6.691406 3.003906 -7.03125 4.046875 -7.03125 C 5.097656 -7.03125 5.976562 -6.691406 6.6875 -6.015625 C 7.40625 -5.335938 7.765625 -4.5 7.765625 -3.5 C 7.765625 -2.5 7.40625 -1.65625 6.6875 -0.96875 C 5.976562 -0.289062 5.097656 0.046875 4.046875 0.046875 C 3.003906 0.046875 2.125 -0.289062 1.40625 -0.96875 C 0.695312 -1.65625 0.34375 -2.5 0.34375 -3.5 C 0.34375 -4.5 0.695312 -5.335938 1.40625 -6.015625 Z M 4.0625 -5.96875 C 3.363281 -5.96875 2.769531 -5.726562 2.28125 -5.25 C 1.789062 -4.78125 1.546875 -4.195312 1.546875 -3.5 C 1.546875 -2.800781 1.789062 -2.210938 2.28125 -1.734375 C 2.78125 -1.253906 3.375 -1.015625 4.0625 -1.015625 C 4.75 -1.015625 5.332031 -1.253906 5.8125 -1.734375 C 6.300781 -2.210938 6.546875 -2.800781 6.546875 -3.5 C 6.546875 -4.195312 6.300781 -4.78125 5.8125 -5.25 C 5.332031 -5.726562 4.75 -5.96875 4.0625 -5.96875 Z M 4.0625 -5.96875 "/></g></g></g><g fill="#677ea4" fill-opacity="1"><g transform="translate(165.54448, 283.559014)"><g><path d="M 8.125 0 L 6.90625 0 L 5.25 -5.453125 L 3.5625 0 L 2.34375 0 L 0.03125 -7 L 1.296875 -7 L 3 -1.3125 L 4.6875 -6.984375 L 5.84375 -7 L 7.546875 -1.3125 L 9.234375 -7 L 10.453125 -7 Z M 8.125 0 "/></g></g></g><g fill="#677ea4" fill-opacity="1"><g transform="translate(177.750393, 283.559014)"><g><path d="M 5.921875 -5.9375 L 2.09375 -5.9375 L 2.09375 -4.046875 L 5.515625 -4.046875 L 5.515625 -2.984375 L 2.09375 -2.984375 L 2.09375 -1.0625 L 6.046875 -1.0625 L 6.046875 0 L 0.921875 0 L 0.921875 -7 L 5.921875 -7 Z M 5.921875 -5.9375 "/></g></g></g><g fill="#677ea4" fill-opacity="1"><g transform="translate(186.157806, 283.559014)"><g><path d="M 5.359375 0 L 4.078125 -2.125 C 4.015625 -2.113281 3.910156 -2.109375 3.765625 -2.109375 L 2.09375 -2.109375 L 2.09375 0 L 0.921875 0 L 0.921875 -7 L 3.765625 -7 C 4.648438 -7 5.335938 -6.789062 5.828125 -6.375 C 6.328125 -5.957031 6.578125 -5.367188 6.578125 -4.609375 C 6.578125 -4.046875 6.453125 -3.570312 6.203125 -3.1875 C 5.953125 -2.800781 5.59375 -2.519531 5.125 -2.34375 L 6.703125 0 Z M 2.09375 -3.171875 L 3.765625 -3.171875 C 4.890625 -3.171875 5.453125 -3.640625 5.453125 -4.578125 C 5.453125 -5.484375 4.890625 -5.9375 3.765625 -5.9375 L 2.09375 -5.9375 Z M 2.09375 -3.171875 "/></g></g></g><g fill="#677ea4" fill-opacity="1"><g transform="translate(195.234953, 283.559014)"><g/></g></g><g fill="#677ea4" fill-opacity="1"><g transform="translate(199.66393, 283.559014)"><g><path d="M 3.21875 -7.046875 C 4.125 -7.046875 4.941406 -6.804688 5.671875 -6.328125 L 5.1875 -5.296875 C 4.46875 -5.722656 3.78125 -5.9375 3.125 -5.9375 C 2.769531 -5.9375 2.488281 -5.875 2.28125 -5.75 C 2.082031 -5.625 1.984375 -5.441406 1.984375 -5.203125 C 1.984375 -4.972656 2.078125 -4.773438 2.265625 -4.609375 C 2.453125 -4.453125 2.6875 -4.332031 2.96875 -4.25 C 3.25 -4.175781 3.550781 -4.082031 3.875 -3.96875 C 4.207031 -3.851562 4.507812 -3.726562 4.78125 -3.59375 C 5.0625 -3.46875 5.296875 -3.265625 5.484375 -2.984375 C 5.671875 -2.703125 5.765625 -2.367188 5.765625 -1.984375 C 5.765625 -1.367188 5.519531 -0.875 5.03125 -0.5 C 4.539062 -0.132812 3.90625 0.046875 3.125 0.046875 C 2.582031 0.046875 2.0625 -0.0507812 1.5625 -0.25 C 1.0625 -0.457031 0.628906 -0.726562 0.265625 -1.0625 L 0.765625 -2.09375 C 1.117188 -1.757812 1.503906 -1.503906 1.921875 -1.328125 C 2.347656 -1.148438 2.753906 -1.0625 3.140625 -1.0625 C 3.554688 -1.0625 3.878906 -1.132812 4.109375 -1.28125 C 4.335938 -1.4375 4.453125 -1.648438 4.453125 -1.921875 C 4.453125 -2.160156 4.359375 -2.359375 4.171875 -2.515625 C 3.984375 -2.679688 3.75 -2.800781 3.46875 -2.875 C 3.1875 -2.957031 2.878906 -3.050781 2.546875 -3.15625 C 2.222656 -3.269531 1.921875 -3.390625 1.640625 -3.515625 C 1.367188 -3.640625 1.140625 -3.835938 0.953125 -4.109375 C 0.765625 -4.378906 0.671875 -4.707031 0.671875 -5.09375 C 0.671875 -5.6875 0.898438 -6.160156 1.359375 -6.515625 C 1.828125 -6.867188 2.445312 -7.046875 3.21875 -7.046875 Z M 3.21875 -7.046875 "/></g></g></g><g fill="#677ea4" fill-opacity="1"><g transform="translate(207.731477, 283.559014)"><g><path d="M 6.984375 0 L 5.8125 0 L 5.8125 -2.90625 L 2.09375 -2.90625 L 2.09375 0 L 0.921875 0 L 0.921875 -7 L 2.09375 -7 L 2.09375 -3.953125 L 5.8125 -3.953125 L 5.8125 -7 L 6.984375 -7 Z M 6.984375 0 "/></g></g></g><g fill="#677ea4" fill-opacity="1"><g transform="translate(217.488354, 283.559014)"><g><path d="M 1.40625 -6.015625 C 2.125 -6.691406 3.003906 -7.03125 4.046875 -7.03125 C 5.097656 -7.03125 5.976562 -6.691406 6.6875 -6.015625 C 7.40625 -5.335938 7.765625 -4.5 7.765625 -3.5 C 7.765625 -2.5 7.40625 -1.65625 6.6875 -0.96875 C 5.976562 -0.289062 5.097656 0.046875 4.046875 0.046875 C 3.003906 0.046875 2.125 -0.289062 1.40625 -0.96875 C 0.695312 -1.65625 0.34375 -2.5 0.34375 -3.5 C 0.34375 -4.5 0.695312 -5.335938 1.40625 -6.015625 Z M 4.0625 -5.96875 C 3.363281 -5.96875 2.769531 -5.726562 2.28125 -5.25 C 1.789062 -4.78125 1.546875 -4.195312 1.546875 -3.5 C 1.546875 -2.800781 1.789062 -2.210938 2.28125 -1.734375 C 2.78125 -1.253906 3.375 -1.015625 4.0625 -1.015625 C 4.75 -1.015625 5.332031 -1.253906 5.8125 -1.734375 C 6.300781 -2.210938 6.546875 -2.800781 6.546875 -3.5 C 6.546875 -4.195312 6.300781 -4.78125 5.8125 -5.25 C 5.332031 -5.726562 4.75 -5.96875 4.0625 -5.96875 Z M 4.0625 -5.96875 "/></g></g></g><g fill="#677ea4" fill-opacity="1"><g transform="translate(227.435157, 283.559014)"><g><path d="M 0.921875 -7 L 3.703125 -7 C 4.585938 -7 5.269531 -6.789062 5.75 -6.375 C 6.238281 -5.957031 6.484375 -5.367188 6.484375 -4.609375 C 6.484375 -3.816406 6.238281 -3.203125 5.75 -2.765625 C 5.269531 -2.328125 4.585938 -2.109375 3.703125 -2.109375 L 2.09375 -2.109375 L 2.09375 0 L 0.921875 0 Z M 2.09375 -5.9375 L 2.09375 -3.171875 L 3.65625 -3.171875 C 4.78125 -3.171875 5.34375 -3.640625 5.34375 -4.578125 C 5.34375 -5.484375 4.78125 -5.9375 3.65625 -5.9375 Z M 2.09375 -5.9375 "/></g></g></g></svg>